<mxfile host="app.diagrams.net" modified="2023-06-27T14:10:25.207Z" agent="Mozilla/5.0 (Windows NT 10.0; Win64; x64) AppleWebKit/537.36 (KHTML, like Gecko) Chrome/114.0.0.0 Safari/537.36 Edg/114.0.1823.58" etag="qArd0dG1DCcx2-lwhb38" version="21.5.0" type="github">
  <diagram name="Page-1" id="wlMQ9MgtWWcuZJ1gMFMR">
    <mxGraphModel dx="1518" dy="646" grid="1" gridSize="10" guides="1" tooltips="1" connect="1" arrows="1" fold="1" page="1" pageScale="1" pageWidth="827" pageHeight="1169" math="0" shadow="0">
      <root>
        <mxCell id="0" />
        <mxCell id="1" parent="0" />
        <mxCell id="G1ptl9BatN_mfTDOLDaQ-1" value="Cloud Function" style="rounded=1;whiteSpace=wrap;html=1;" parent="1" vertex="1">
          <mxGeometry x="350" y="85" width="120" height="40" as="geometry" />
        </mxCell>
        <mxCell id="G1ptl9BatN_mfTDOLDaQ-2" value="Cloud SQL" style="rounded=1;whiteSpace=wrap;html=1;" parent="1" vertex="1">
          <mxGeometry x="120" y="85" width="120" height="40" as="geometry" />
        </mxCell>
        <mxCell id="G1ptl9BatN_mfTDOLDaQ-3" value="" style="shape=image;verticalLabelPosition=bottom;labelBackgroundColor=default;verticalAlign=top;aspect=fixed;imageAspect=0;image=data:image/svg+xml,PHN2ZyB4bWxuczp4bGluaz0iaHR0cDovL3d3dy53My5vcmcvMTk5OS94bGluayIgeG1sbnM9Imh0dHA6Ly93d3cudzMub3JnLzIwMDAvc3ZnIiBwcmVzZXJ2ZUFzcGVjdFJhdGlvPSJ4TWlkWU1pZCIgdmVyc2lvbj0iMS4xIiB2aWV3Qm94PSIwIDAgMjU2IDIzMS4yMzY4MTY0MDYyNSIgaGVpZ2h0PSIyMzEuMjM2ODE2NDA2MjUiIHdpZHRoPSIyNTYiPiYjeGE7ICAgIDxkZWZzPiYjeGE7ICAgICAgICA8cGF0aCBpZD0icGF0aC0xIiBkPSJNMjUyLjkyNTg1NCwxMDMuMjM3MDc3IEwyMDAuMzI3MzQ0LDExLjc1OTY2NyBDMTk2LjMwMjU3OSw0LjYyMjI1NzAzIDE4OC44MDA1NCwwLjE0ODQyNDcyNiAxODAuNjA3OTAyLDAgTDc1LjM5MDg4MTQsMCBDNjcuMTk3MDkxMiwwLjE0NDM4NTQ4IDU5LjY5MzE5ODQsNC42MTkzMjM2MyA1NS42NzE0Mzk4LDExLjc1OTY2NyBMMy4wNTI5Mjk4NSwxMDIuOTk3MDgzIEMtMS4wMTc2NDMyOCwxMTAuMDgwMzczIC0xLjAxNzY0MzI4LDExOC43OTMxNDYgMy4wNTI5Mjk4NSwxMjUuODc2NDM2IEw1NS42NTE0NDA0LDIxNy44NzM4MyBDNTkuNjMxOTc1NSwyMjUuMTEyNzA3IDY3LjExNTkwNTIsMjI5LjczNTEzNCA3NS4zNzA4ODIsMjMwLjA1MzQ4NiBMMTgwLjU4NzkwMywyMzAuMDUzNDg2IEMxODguODQyNDQyLDIyOS43NzAxNDQgMTk2LjMzOTgwOSwyMjUuMTY2ODk2IDIwMC4zMjczNDQsMjE3LjkzMzgyOSBMMjUyLjkyNTg1NCwxMjYuNDU2NDE5IEMyNTcuMDI0NzE1LDExOS4yNTkzMTEgMjU3LjAyNDcxNSwxMTAuNDM0MTg1IDI1Mi45MjU4NTQsMTAzLjIzNzA3NyBaIi8+JiN4YTsgICAgPC9kZWZzPiYjeGE7CQk8Zz4mI3hhOwkJCQk8bWFzayBmaWxsPSJ3aGl0ZSIgaWQ9Im1hc2stMiI+JiN4YTsJCQkJCQk8dXNlIHhsaW5rOmhyZWY9IiNwYXRoLTEiLz4mI3hhOwkJCQk8L21hc2s+JiN4YTsJCQkJPGcgZmlsbC1ydWxlPSJub256ZXJvIi8+JiN4YTsJCQkJPHBhdGggbWFzaz0idXJsKCNtYXNrLTIpIiBmaWxsLXJ1bGU9Im5vbnplcm8iIGZpbGw9IiM0Mjg1RjQiIGQ9Ik0yNTIuOTI1ODU0LDEwMy4yMzcwNzcgTDIwMC4zMjczNDQsMTEuNzU5NjY3IEMxOTYuMzAyNTc5LDQuNjIyMjU3MDMgMTg4LjgwMDU0LDAuMTQ4NDI0NzI2IDE4MC42MDc5MDIsMCBMNzUuMzkwODgxNCwwIEM2Ny4xOTcwOTEyLDAuMTQ0Mzg1NDggNTkuNjkzMTk4NCw0LjYxOTMyMzYzIDU1LjY3MTQzOTgsMTEuNzU5NjY3IEwzLjA1MjkyOTg1LDEwMi45OTcwODMgQy0xLjAxNzY0MzI4LDExMC4wODAzNzMgLTEuMDE3NjQzMjgsMTE4Ljc5MzE0NiAzLjA1MjkyOTg1LDEyNS44NzY0MzYgTDU1LjY1MTQ0MDQsMjE3Ljg3MzgzIEM1OS42MzE5NzU1LDIyNS4xMTI3MDcgNjcuMTE1OTA1MiwyMjkuNzM1MTM0IDc1LjM3MDg4MiwyMzAuMDUzNDg2IEwxODAuNTg3OTAzLDIzMC4wNTM0ODYgQzE4OC44NDI0NDIsMjI5Ljc3MDE0NCAxOTYuMzM5ODA5LDIyNS4xNjY4OTYgMjAwLjMyNzM0NCwyMTcuOTMzODI5IEwyNTIuOTI1ODU0LDEyNi40NTY0MTkgQzI1Ny4wMjQ3MTUsMTE5LjI1OTMxMSAyNTcuMDI0NzE1LDExMC40MzQxODUgMjUyLjkyNTg1NCwxMDMuMjM3MDc3IFoiLz4mI3hhOwkJCQk8cGF0aCBtYXNrPSJ1cmwoI21hc2stMikiIG9wYWNpdHk9IjAuMDcwMDAwMDAwMyIgZmlsbC1ydWxlPSJub256ZXJvIiBmaWxsPSIjMDAwMDAwIiBkPSJNMTg3LjE2NzYwNSw4NC43MzE2MDMgTDE3OS45MTU3MTEsOTIuNjQwOTQ4NSBMMTgxLjU0OTM3OSwxMzkuNjM4Nzk3IEwxNzQuNjc2MDE5LDE0OS42MDAxOSBMMTcwLjY5MTQ2MiwxNDUuNjE1NjMzIEwxNzQuMzU3MjU0LDE0NS42MTU2MzMgTDE3NC4zNTcyNTQsMTI5LjMxODc5NSBMMTU2Ljc2NTQzNSwxMTEuNzI2OTc2IEwxNDMuNDY4NzQ2LDExOC4zNzMwNDcgTDk5LjM2Nzg5MjksNzQuMTcyNTI3MSBMNzguMTMwMjA0NSw4NS41NDg0MzcxIEw3NS41MDAzOTcsMTA3LjU4MzAzNyBMODIuOTUxNTE4NCwxNDcuOTA2NzUzIEw5My43NDk2Njc3LDE1OC40ODU3NTIgTDg4LjgyODczOTksMTY1LjQ3ODY0OSBMMTUzLjA3NjA5OCwyMzEuMjM2ODE2IEwxNzkuOTE1NzExLDIzMS4yMzY4MTYgQzE4OC4xMzg2MTQsMjMwLjk1NDU2IDE5Ny4wNDQyNzYsMjI1LjU2NTY5OCAyMDEuMDE2NTI4LDIxOC4zNjAzNTIgTDI0NC43OTUzMzYsMTQyLjM1NjkzNCBMMTg3LjE2NzYwNSw4NC43MzE2MDMgWiIvPiYjeGE7CQkJCTxwb2x5Z29uIHBvaW50cz0iODguODI4NzM5OSAxNjUuNDc4NjQ5IDk5LjM2Nzg5MjkgMTU0LjkzOTQ5NiA4My41NjkxMjQ3IDEzOS4xNDA3MjggODMuNTY5MTI0NyA4OS45NzEyOTUzIDk5LjM2Nzg5MjkgNzQuMTcyNTI3MSA4OC44Mjg3Mzk5IDYzLjYzMzM3NDEgNjcuNzMwNTExIDg0LjczMTYwMyA2Ny43MzA1MTEgMTQ0LjM4MDQyIiBtYXNrPSJ1cmwoI21hc2stMikiIGZpbGwtcnVsZT0ibm9uemVybyIgZmlsbD0iI0ZGRkZGRiIvPiYjeGE7CQkJCTxjaXJjbGUgcj0iNy40NzEwNDQyMyIgY3k9IjExNC41NTYwMTIiIGN4PSIxMDUuMTQ1NSIgbWFzaz0idXJsKCNtYXNrLTIpIiBmaWxsLXJ1bGU9Im5vbnplcm8iIGZpbGw9IiNGRkZGRkYiLz4mI3hhOwkJCQk8Y2lyY2xlIHI9IjcuNDcxMDQ0MjMiIGN5PSIxMTQuNTU2MDEyIiBjeD0iMTI3LjQ5ODg2NSIgbWFzaz0idXJsKCNtYXNrLTIpIiBmaWxsLXJ1bGU9Im5vbnplcm8iIGZpbGw9IiNGRkZGRkYiLz4mI3hhOwkJCQk8Y2lyY2xlIHI9IjcuNDcxMDQ0MjMiIGN5PSIxMTQuNTU2MDEyIiBjeD0iMTQ5Ljg1MjIyOSIgbWFzaz0idXJsKCNtYXNrLTIpIiBmaWxsLXJ1bGU9Im5vbnplcm8iIGZpbGw9IiNGRkZGRkYiLz4mI3hhOwkJCQk8cG9seWdvbiBwb2ludHM9IjE2Ni4wNjkzNzYgNjMuNjMzMzc0MSAxNTUuNTMwMjIzIDc0LjE3MjUyNzEgMTcxLjMyODk5MSA4OS45NzEyOTUzIDE3MS4zMjg5OTEgMTM5LjE0MDcyOCAxNTUuNTMwMjIzIDE1NC45Mzk0OTYgMTY2LjA2OTM3NiAxNjUuNDc4NjQ5IDE4Ny4xNjc2MDUgMTQ0LjM4MDQyIDE4Ny4xNjc2MDUgODQuNzMxNjAzIiBtYXNrPSJ1cmwoI21hc2stMikiIGZpbGwtcnVsZT0ibm9uemVybyIgZmlsbD0iI0ZGRkZGRiIvPiYjeGE7CQk8L2c+JiN4YTs8L3N2Zz4=;" parent="1" vertex="1">
          <mxGeometry x="336" y="70" width="33.24" height="30" as="geometry" />
        </mxCell>
        <mxCell id="G1ptl9BatN_mfTDOLDaQ-4" style="edgeStyle=orthogonalEdgeStyle;rounded=0;orthogonalLoop=1;jettySize=auto;html=1;" parent="1" source="G1ptl9BatN_mfTDOLDaQ-1" target="G1ptl9BatN_mfTDOLDaQ-2" edge="1">
          <mxGeometry relative="1" as="geometry" />
        </mxCell>
        <mxCell id="G1ptl9BatN_mfTDOLDaQ-5" style="edgeStyle=orthogonalEdgeStyle;rounded=0;orthogonalLoop=1;jettySize=auto;html=1;entryX=1;entryY=0.5;entryDx=0;entryDy=0;" parent="1" source="G1ptl9BatN_mfTDOLDaQ-6" target="G1ptl9BatN_mfTDOLDaQ-1" edge="1">
          <mxGeometry relative="1" as="geometry" />
        </mxCell>
        <mxCell id="G1ptl9BatN_mfTDOLDaQ-6" value="API Gateway" style="rounded=1;whiteSpace=wrap;html=1;" parent="1" vertex="1">
          <mxGeometry x="600" y="85" width="120" height="40" as="geometry" />
        </mxCell>
        <mxCell id="G1ptl9BatN_mfTDOLDaQ-7" style="edgeStyle=orthogonalEdgeStyle;rounded=0;orthogonalLoop=1;jettySize=auto;html=1;" parent="1" source="G1ptl9BatN_mfTDOLDaQ-8" target="G1ptl9BatN_mfTDOLDaQ-6" edge="1">
          <mxGeometry relative="1" as="geometry" />
        </mxCell>
        <mxCell id="G1ptl9BatN_mfTDOLDaQ-8" value="User" style="sketch=0;outlineConnect=0;fontColor=#232F3E;gradientColor=none;fillColor=#232F3D;strokeColor=none;dashed=0;verticalLabelPosition=bottom;verticalAlign=top;align=center;html=1;fontSize=12;fontStyle=0;aspect=fixed;pointerEvents=1;shape=mxgraph.aws4.user;" parent="1" vertex="1">
          <mxGeometry x="820" y="75.75" width="58.5" height="58.5" as="geometry" />
        </mxCell>
        <mxCell id="G1ptl9BatN_mfTDOLDaQ-9" value="Routing" style="text;html=1;align=center;verticalAlign=middle;resizable=0;points=[];autosize=1;strokeColor=none;fillColor=none;" parent="1" vertex="1">
          <mxGeometry x="510" y="75.75" width="60" height="30" as="geometry" />
        </mxCell>
        <mxCell id="G1ptl9BatN_mfTDOLDaQ-10" value="Query" style="text;html=1;align=center;verticalAlign=middle;resizable=0;points=[];autosize=1;strokeColor=none;fillColor=none;" parent="1" vertex="1">
          <mxGeometry x="270" y="75.75" width="60" height="30" as="geometry" />
        </mxCell>
        <mxCell id="G1ptl9BatN_mfTDOLDaQ-11" value="Call" style="text;html=1;align=center;verticalAlign=middle;resizable=0;points=[];autosize=1;strokeColor=none;fillColor=none;" parent="1" vertex="1">
          <mxGeometry x="760" y="75.75" width="40" height="30" as="geometry" />
        </mxCell>
        <mxCell id="G1ptl9BatN_mfTDOLDaQ-12" style="edgeStyle=orthogonalEdgeStyle;rounded=0;orthogonalLoop=1;jettySize=auto;html=1;dashed=1;" parent="1" target="G1ptl9BatN_mfTDOLDaQ-2" edge="1">
          <mxGeometry relative="1" as="geometry">
            <mxPoint x="60" y="105" as="sourcePoint" />
          </mxGeometry>
        </mxCell>
        <mxCell id="G1ptl9BatN_mfTDOLDaQ-13" value="import data" style="text;html=1;align=center;verticalAlign=middle;resizable=0;points=[];autosize=1;strokeColor=none;fillColor=none;" parent="1" vertex="1">
          <mxGeometry x="20" y="75" width="80" height="30" as="geometry" />
        </mxCell>
        <mxCell id="G1ptl9BatN_mfTDOLDaQ-15" value="API Gateway" style="rounded=1;whiteSpace=wrap;html=1;" parent="1" vertex="1">
          <mxGeometry x="300" y="410" width="120" height="20" as="geometry" />
        </mxCell>
        <mxCell id="G1ptl9BatN_mfTDOLDaQ-17" value="Cloud Function" style="rounded=1;whiteSpace=wrap;html=1;" parent="1" vertex="1">
          <mxGeometry x="470" y="410" width="120" height="20" as="geometry" />
        </mxCell>
        <mxCell id="G1ptl9BatN_mfTDOLDaQ-19" value="Cloud SQL" style="rounded=1;whiteSpace=wrap;html=1;" parent="1" vertex="1">
          <mxGeometry x="640" y="410" width="120" height="20" as="geometry" />
        </mxCell>
        <mxCell id="G1ptl9BatN_mfTDOLDaQ-21" value="" style="endArrow=none;html=1;rounded=0;dashed=1;" parent="1" source="G1ptl9BatN_mfTDOLDaQ-27" edge="1">
          <mxGeometry width="50" height="50" relative="1" as="geometry">
            <mxPoint x="359.40999999999997" y="430" as="sourcePoint" />
            <mxPoint x="359" y="590" as="targetPoint" />
          </mxGeometry>
        </mxCell>
        <mxCell id="G1ptl9BatN_mfTDOLDaQ-22" value="" style="endArrow=none;html=1;rounded=0;dashed=1;" parent="1" source="G1ptl9BatN_mfTDOLDaQ-32" edge="1">
          <mxGeometry width="50" height="50" relative="1" as="geometry">
            <mxPoint x="529.41" y="430" as="sourcePoint" />
            <mxPoint x="529" y="590" as="targetPoint" />
          </mxGeometry>
        </mxCell>
        <mxCell id="G1ptl9BatN_mfTDOLDaQ-23" value="" style="endArrow=none;html=1;rounded=0;dashed=1;" parent="1" source="G1ptl9BatN_mfTDOLDaQ-35" edge="1">
          <mxGeometry width="50" height="50" relative="1" as="geometry">
            <mxPoint x="699.41" y="430" as="sourcePoint" />
            <mxPoint x="699" y="590" as="targetPoint" />
          </mxGeometry>
        </mxCell>
        <mxCell id="G1ptl9BatN_mfTDOLDaQ-24" value="Client/User" style="rounded=1;whiteSpace=wrap;html=1;" parent="1" vertex="1">
          <mxGeometry x="130" y="410" width="120" height="20" as="geometry" />
        </mxCell>
        <mxCell id="G1ptl9BatN_mfTDOLDaQ-25" value="" style="endArrow=none;html=1;rounded=0;dashed=1;" parent="1" edge="1">
          <mxGeometry width="50" height="50" relative="1" as="geometry">
            <mxPoint x="190" y="430" as="sourcePoint" />
            <mxPoint x="190" y="590" as="targetPoint" />
          </mxGeometry>
        </mxCell>
        <mxCell id="G1ptl9BatN_mfTDOLDaQ-30" value="" style="endArrow=none;html=1;rounded=0;dashed=1;" parent="1" target="G1ptl9BatN_mfTDOLDaQ-27" edge="1">
          <mxGeometry width="50" height="50" relative="1" as="geometry">
            <mxPoint x="359.40999999999997" y="430" as="sourcePoint" />
            <mxPoint x="359.40999999999997" y="670" as="targetPoint" />
          </mxGeometry>
        </mxCell>
        <mxCell id="G1ptl9BatN_mfTDOLDaQ-47" style="edgeStyle=orthogonalEdgeStyle;rounded=0;orthogonalLoop=1;jettySize=auto;html=1;" parent="1" source="G1ptl9BatN_mfTDOLDaQ-27" edge="1">
          <mxGeometry relative="1" as="geometry">
            <mxPoint x="190" y="540" as="targetPoint" />
            <Array as="points">
              <mxPoint x="190" y="540" />
            </Array>
          </mxGeometry>
        </mxCell>
        <mxCell id="G1ptl9BatN_mfTDOLDaQ-27" value="" style="rounded=0;whiteSpace=wrap;html=1;" parent="1" vertex="1">
          <mxGeometry x="355" y="460" width="10" height="90" as="geometry" />
        </mxCell>
        <mxCell id="G1ptl9BatN_mfTDOLDaQ-31" value="" style="endArrow=classic;html=1;rounded=0;entryX=0;entryY=0.5;entryDx=0;entryDy=0;" parent="1" edge="1">
          <mxGeometry width="50" height="50" relative="1" as="geometry">
            <mxPoint x="190" y="474" as="sourcePoint" />
            <mxPoint x="355" y="474" as="targetPoint" />
            <Array as="points">
              <mxPoint x="330" y="474" />
            </Array>
          </mxGeometry>
        </mxCell>
        <mxCell id="G1ptl9BatN_mfTDOLDaQ-33" value="" style="endArrow=none;html=1;rounded=0;dashed=1;" parent="1" target="G1ptl9BatN_mfTDOLDaQ-32" edge="1">
          <mxGeometry width="50" height="50" relative="1" as="geometry">
            <mxPoint x="529.41" y="430" as="sourcePoint" />
            <mxPoint x="529.41" y="670" as="targetPoint" />
          </mxGeometry>
        </mxCell>
        <mxCell id="G1ptl9BatN_mfTDOLDaQ-41" style="edgeStyle=orthogonalEdgeStyle;rounded=0;orthogonalLoop=1;jettySize=auto;html=1;entryX=0.91;entryY=0.679;entryDx=0;entryDy=0;entryPerimeter=0;" parent="1" source="G1ptl9BatN_mfTDOLDaQ-32" target="G1ptl9BatN_mfTDOLDaQ-27" edge="1">
          <mxGeometry relative="1" as="geometry">
            <mxPoint x="360" y="520" as="targetPoint" />
            <Array as="points">
              <mxPoint x="380" y="521" />
            </Array>
          </mxGeometry>
        </mxCell>
        <mxCell id="G1ptl9BatN_mfTDOLDaQ-48" style="edgeStyle=orthogonalEdgeStyle;rounded=0;orthogonalLoop=1;jettySize=auto;html=1;entryX=0;entryY=0.25;entryDx=0;entryDy=0;" parent="1" source="G1ptl9BatN_mfTDOLDaQ-32" target="G1ptl9BatN_mfTDOLDaQ-35" edge="1">
          <mxGeometry relative="1" as="geometry">
            <Array as="points">
              <mxPoint x="580" y="484" />
              <mxPoint x="580" y="484" />
            </Array>
          </mxGeometry>
        </mxCell>
        <mxCell id="G1ptl9BatN_mfTDOLDaQ-32" value="" style="rounded=0;whiteSpace=wrap;html=1;" parent="1" vertex="1">
          <mxGeometry x="525" y="467" width="10" height="63" as="geometry" />
        </mxCell>
        <mxCell id="G1ptl9BatN_mfTDOLDaQ-36" value="" style="endArrow=none;html=1;rounded=0;dashed=1;" parent="1" target="G1ptl9BatN_mfTDOLDaQ-35" edge="1">
          <mxGeometry width="50" height="50" relative="1" as="geometry">
            <mxPoint x="699.41" y="430" as="sourcePoint" />
            <mxPoint x="699.41" y="670" as="targetPoint" />
          </mxGeometry>
        </mxCell>
        <mxCell id="G1ptl9BatN_mfTDOLDaQ-37" value="" style="endArrow=classic;html=1;rounded=0;entryX=0.015;entryY=0.198;entryDx=0;entryDy=0;entryPerimeter=0;" parent="1" target="G1ptl9BatN_mfTDOLDaQ-32" edge="1">
          <mxGeometry width="50" height="50" relative="1" as="geometry">
            <mxPoint x="365" y="479.58" as="sourcePoint" />
            <mxPoint x="520" y="480" as="targetPoint" />
            <Array as="points">
              <mxPoint x="505" y="479.58" />
            </Array>
          </mxGeometry>
        </mxCell>
        <mxCell id="G1ptl9BatN_mfTDOLDaQ-40" style="edgeStyle=orthogonalEdgeStyle;rounded=0;orthogonalLoop=1;jettySize=auto;html=1;exitX=0;exitY=0.75;exitDx=0;exitDy=0;" parent="1" source="G1ptl9BatN_mfTDOLDaQ-35" edge="1">
          <mxGeometry relative="1" as="geometry">
            <mxPoint x="536" y="502" as="targetPoint" />
            <Array as="points">
              <mxPoint x="695" y="502" />
              <mxPoint x="536" y="502" />
            </Array>
          </mxGeometry>
        </mxCell>
        <mxCell id="G1ptl9BatN_mfTDOLDaQ-35" value="" style="rounded=0;whiteSpace=wrap;html=1;" parent="1" vertex="1">
          <mxGeometry x="695" y="474" width="10" height="40" as="geometry" />
        </mxCell>
        <mxCell id="G1ptl9BatN_mfTDOLDaQ-46" value="CRUD" style="text;html=1;align=center;verticalAlign=middle;resizable=0;points=[];autosize=1;strokeColor=none;fillColor=none;" parent="1" vertex="1">
          <mxGeometry x="244" y="451" width="60" height="30" as="geometry" />
        </mxCell>
        <mxCell id="G1ptl9BatN_mfTDOLDaQ-49" value="Routing" style="text;html=1;align=center;verticalAlign=middle;resizable=0;points=[];autosize=1;strokeColor=none;fillColor=none;" parent="1" vertex="1">
          <mxGeometry x="410" y="456" width="60" height="30" as="geometry" />
        </mxCell>
        <mxCell id="G1ptl9BatN_mfTDOLDaQ-50" value="Query data" style="text;html=1;align=center;verticalAlign=middle;resizable=0;points=[];autosize=1;strokeColor=none;fillColor=none;" parent="1" vertex="1">
          <mxGeometry x="570" y="461" width="80" height="30" as="geometry" />
        </mxCell>
        <mxCell id="G1ptl9BatN_mfTDOLDaQ-51" value="Response" style="text;html=1;align=center;verticalAlign=middle;resizable=0;points=[];autosize=1;strokeColor=none;fillColor=none;" parent="1" vertex="1">
          <mxGeometry x="573" y="495" width="80" height="30" as="geometry" />
        </mxCell>
        <mxCell id="G1ptl9BatN_mfTDOLDaQ-52" value="Response" style="text;html=1;align=center;verticalAlign=middle;resizable=0;points=[];autosize=1;strokeColor=none;fillColor=none;" parent="1" vertex="1">
          <mxGeometry x="400" y="514" width="80" height="30" as="geometry" />
        </mxCell>
        <mxCell id="G1ptl9BatN_mfTDOLDaQ-53" value="Response" style="text;html=1;align=center;verticalAlign=middle;resizable=0;points=[];autosize=1;strokeColor=none;fillColor=none;" parent="1" vertex="1">
          <mxGeometry x="240" y="532" width="80" height="30" as="geometry" />
        </mxCell>
        <mxCell id="G1ptl9BatN_mfTDOLDaQ-54" value="" style="shape=image;verticalLabelPosition=bottom;labelBackgroundColor=default;verticalAlign=top;aspect=fixed;imageAspect=0;image=data:image/svg+xml,PHN2ZyB4bWxuczp4bGluaz0iaHR0cDovL3d3dy53My5vcmcvMTk5OS94bGluayIgeG1sbnM9Imh0dHA6Ly93d3cudzMub3JnLzIwMDAvc3ZnIiBwcmVzZXJ2ZUFzcGVjdFJhdGlvPSJ4TWlkWU1pZCIgdmVyc2lvbj0iMS4xIiB2aWV3Qm94PSIwIDAgMjU2IDIzMS4yMzY4MTY0MDYyNSIgaGVpZ2h0PSIyMzEuMjM2ODE2NDA2MjUiIHdpZHRoPSIyNTYiPiYjeGE7ICAgIDxkZWZzPiYjeGE7ICAgICAgICA8cGF0aCBpZD0icGF0aC0xIiBkPSJNMjUyLjkyNTg1NCwxMDMuMjM3MDc3IEwyMDAuMzI3MzQ0LDExLjc1OTY2NyBDMTk2LjMwMjU3OSw0LjYyMjI1NzAzIDE4OC44MDA1NCwwLjE0ODQyNDcyNiAxODAuNjA3OTAyLDAgTDc1LjM5MDg4MTQsMCBDNjcuMTk3MDkxMiwwLjE0NDM4NTQ4IDU5LjY5MzE5ODQsNC42MTkzMjM2MyA1NS42NzE0Mzk4LDExLjc1OTY2NyBMMy4wNTI5Mjk4NSwxMDIuOTk3MDgzIEMtMS4wMTc2NDMyOCwxMTAuMDgwMzczIC0xLjAxNzY0MzI4LDExOC43OTMxNDYgMy4wNTI5Mjk4NSwxMjUuODc2NDM2IEw1NS42NTE0NDA0LDIxNy44NzM4MyBDNTkuNjMxOTc1NSwyMjUuMTEyNzA3IDY3LjExNTkwNTIsMjI5LjczNTEzNCA3NS4zNzA4ODIsMjMwLjA1MzQ4NiBMMTgwLjU4NzkwMywyMzAuMDUzNDg2IEMxODguODQyNDQyLDIyOS43NzAxNDQgMTk2LjMzOTgwOSwyMjUuMTY2ODk2IDIwMC4zMjczNDQsMjE3LjkzMzgyOSBMMjUyLjkyNTg1NCwxMjYuNDU2NDE5IEMyNTcuMDI0NzE1LDExOS4yNTkzMTEgMjU3LjAyNDcxNSwxMTAuNDM0MTg1IDI1Mi45MjU4NTQsMTAzLjIzNzA3NyBaIi8+JiN4YTsgICAgPC9kZWZzPiYjeGE7CQk8Zz4mI3hhOwkJCQk8bWFzayBmaWxsPSJ3aGl0ZSIgaWQ9Im1hc2stMiI+JiN4YTsJCQkJCQk8dXNlIHhsaW5rOmhyZWY9IiNwYXRoLTEiLz4mI3hhOwkJCQk8L21hc2s+JiN4YTsJCQkJPGcgZmlsbC1ydWxlPSJub256ZXJvIi8+JiN4YTsJCQkJPHBhdGggbWFzaz0idXJsKCNtYXNrLTIpIiBmaWxsLXJ1bGU9Im5vbnplcm8iIGZpbGw9IiM0Mjg1RjQiIGQ9Ik0yNTIuOTI1ODU0LDEwMy4yMzcwNzcgTDIwMC4zMjczNDQsMTEuNzU5NjY3IEMxOTYuMzAyNTc5LDQuNjIyMjU3MDMgMTg4LjgwMDU0LDAuMTQ4NDI0NzI2IDE4MC42MDc5MDIsMCBMNzUuMzkwODgxNCwwIEM2Ny4xOTcwOTEyLDAuMTQ0Mzg1NDggNTkuNjkzMTk4NCw0LjYxOTMyMzYzIDU1LjY3MTQzOTgsMTEuNzU5NjY3IEwzLjA1MjkyOTg1LDEwMi45OTcwODMgQy0xLjAxNzY0MzI4LDExMC4wODAzNzMgLTEuMDE3NjQzMjgsMTE4Ljc5MzE0NiAzLjA1MjkyOTg1LDEyNS44NzY0MzYgTDU1LjY1MTQ0MDQsMjE3Ljg3MzgzIEM1OS42MzE5NzU1LDIyNS4xMTI3MDcgNjcuMTE1OTA1MiwyMjkuNzM1MTM0IDc1LjM3MDg4MiwyMzAuMDUzNDg2IEwxODAuNTg3OTAzLDIzMC4wNTM0ODYgQzE4OC44NDI0NDIsMjI5Ljc3MDE0NCAxOTYuMzM5ODA5LDIyNS4xNjY4OTYgMjAwLjMyNzM0NCwyMTcuOTMzODI5IEwyNTIuOTI1ODU0LDEyNi40NTY0MTkgQzI1Ny4wMjQ3MTUsMTE5LjI1OTMxMSAyNTcuMDI0NzE1LDExMC40MzQxODUgMjUyLjkyNTg1NCwxMDMuMjM3MDc3IFoiLz4mI3hhOwkJCQk8cGF0aCBtYXNrPSJ1cmwoI21hc2stMikiIG9wYWNpdHk9IjAuMDcwMDAwMDAwMyIgZmlsbC1ydWxlPSJub256ZXJvIiBmaWxsPSIjMDAwMDAwIiBkPSJNMTg3LjE2NzYwNSw4NC43MzE2MDMgTDE3OS45MTU3MTEsOTIuNjQwOTQ4NSBMMTgxLjU0OTM3OSwxMzkuNjM4Nzk3IEwxNzQuNjc2MDE5LDE0OS42MDAxOSBMMTcwLjY5MTQ2MiwxNDUuNjE1NjMzIEwxNzQuMzU3MjU0LDE0NS42MTU2MzMgTDE3NC4zNTcyNTQsMTI5LjMxODc5NSBMMTU2Ljc2NTQzNSwxMTEuNzI2OTc2IEwxNDMuNDY4NzQ2LDExOC4zNzMwNDcgTDk5LjM2Nzg5MjksNzQuMTcyNTI3MSBMNzguMTMwMjA0NSw4NS41NDg0MzcxIEw3NS41MDAzOTcsMTA3LjU4MzAzNyBMODIuOTUxNTE4NCwxNDcuOTA2NzUzIEw5My43NDk2Njc3LDE1OC40ODU3NTIgTDg4LjgyODczOTksMTY1LjQ3ODY0OSBMMTUzLjA3NjA5OCwyMzEuMjM2ODE2IEwxNzkuOTE1NzExLDIzMS4yMzY4MTYgQzE4OC4xMzg2MTQsMjMwLjk1NDU2IDE5Ny4wNDQyNzYsMjI1LjU2NTY5OCAyMDEuMDE2NTI4LDIxOC4zNjAzNTIgTDI0NC43OTUzMzYsMTQyLjM1NjkzNCBMMTg3LjE2NzYwNSw4NC43MzE2MDMgWiIvPiYjeGE7CQkJCTxwb2x5Z29uIHBvaW50cz0iODguODI4NzM5OSAxNjUuNDc4NjQ5IDk5LjM2Nzg5MjkgMTU0LjkzOTQ5NiA4My41NjkxMjQ3IDEzOS4xNDA3MjggODMuNTY5MTI0NyA4OS45NzEyOTUzIDk5LjM2Nzg5MjkgNzQuMTcyNTI3MSA4OC44Mjg3Mzk5IDYzLjYzMzM3NDEgNjcuNzMwNTExIDg0LjczMTYwMyA2Ny43MzA1MTEgMTQ0LjM4MDQyIiBtYXNrPSJ1cmwoI21hc2stMikiIGZpbGwtcnVsZT0ibm9uemVybyIgZmlsbD0iI0ZGRkZGRiIvPiYjeGE7CQkJCTxjaXJjbGUgcj0iNy40NzEwNDQyMyIgY3k9IjExNC41NTYwMTIiIGN4PSIxMDUuMTQ1NSIgbWFzaz0idXJsKCNtYXNrLTIpIiBmaWxsLXJ1bGU9Im5vbnplcm8iIGZpbGw9IiNGRkZGRkYiLz4mI3hhOwkJCQk8Y2lyY2xlIHI9IjcuNDcxMDQ0MjMiIGN5PSIxMTQuNTU2MDEyIiBjeD0iMTI3LjQ5ODg2NSIgbWFzaz0idXJsKCNtYXNrLTIpIiBmaWxsLXJ1bGU9Im5vbnplcm8iIGZpbGw9IiNGRkZGRkYiLz4mI3hhOwkJCQk8Y2lyY2xlIHI9IjcuNDcxMDQ0MjMiIGN5PSIxMTQuNTU2MDEyIiBjeD0iMTQ5Ljg1MjIyOSIgbWFzaz0idXJsKCNtYXNrLTIpIiBmaWxsLXJ1bGU9Im5vbnplcm8iIGZpbGw9IiNGRkZGRkYiLz4mI3hhOwkJCQk8cG9seWdvbiBwb2ludHM9IjE2Ni4wNjkzNzYgNjMuNjMzMzc0MSAxNTUuNTMwMjIzIDc0LjE3MjUyNzEgMTcxLjMyODk5MSA4OS45NzEyOTUzIDE3MS4zMjg5OTEgMTM5LjE0MDcyOCAxNTUuNTMwMjIzIDE1NC45Mzk0OTYgMTY2LjA2OTM3NiAxNjUuNDc4NjQ5IDE4Ny4xNjc2MDUgMTQ0LjM4MDQyIDE4Ny4xNjc2MDUgODQuNzMxNjAzIiBtYXNrPSJ1cmwoI21hc2stMikiIGZpbGwtcnVsZT0ibm9uemVybyIgZmlsbD0iI0ZGRkZGRiIvPiYjeGE7CQk8L2c+JiN4YTs8L3N2Zz4=;" parent="1" vertex="1">
          <mxGeometry x="460" y="400" width="22.16" height="20" as="geometry" />
        </mxCell>
        <mxCell id="G1ptl9BatN_mfTDOLDaQ-56" value="" style="shape=image;verticalLabelPosition=bottom;labelBackgroundColor=default;verticalAlign=top;aspect=fixed;imageAspect=0;image=https://www.svgviewer.dev/static-svgs/474532/cloud-api-gateway.svg;" parent="1" vertex="1">
          <mxGeometry x="290" y="400" width="20" height="20" as="geometry" />
        </mxCell>
        <mxCell id="G1ptl9BatN_mfTDOLDaQ-57" style="edgeStyle=orthogonalEdgeStyle;rounded=0;orthogonalLoop=1;jettySize=auto;html=1;dashed=1;entryX=0.5;entryY=1;entryDx=0;entryDy=0;" parent="1" source="G1ptl9BatN_mfTDOLDaQ-58" target="G1ptl9BatN_mfTDOLDaQ-1" edge="1">
          <mxGeometry relative="1" as="geometry">
            <mxPoint x="175" y="210" as="targetPoint" />
            <Array as="points">
              <mxPoint x="410" y="240" />
            </Array>
          </mxGeometry>
        </mxCell>
        <mxCell id="G1ptl9BatN_mfTDOLDaQ-61" value="Deploy code" style="text;html=1;align=center;verticalAlign=middle;resizable=0;points=[];autosize=1;strokeColor=none;fillColor=none;" parent="1" vertex="1">
          <mxGeometry x="410.00000000000006" y="170" width="90" height="30" as="geometry" />
        </mxCell>
        <mxCell id="G1ptl9BatN_mfTDOLDaQ-63" value="" style="shape=image;verticalLabelPosition=bottom;labelBackgroundColor=default;verticalAlign=top;aspect=fixed;imageAspect=0;image=https://www.svgviewer.dev/static-svgs/474532/cloud-api-gateway.svg;" parent="1" vertex="1">
          <mxGeometry x="590" y="70" width="30" height="30" as="geometry" />
        </mxCell>
        <mxCell id="CgpQCLeY4fuIe9qO7Qcv-1" value="" style="editableCssRules=.*;html=1;shape=image;verticalLabelPosition=bottom;labelBackgroundColor=#ffffff;verticalAlign=top;aspect=fixed;imageAspect=0;image=data:image/svg+xml,PHN2ZyB4bWxucz0iaHR0cDovL3d3dy53My5vcmcvMjAwMC9zdmciIHhtbG5zOnY9Imh0dHBzOi8vdmVjdGEuaW8vbmFubyIgd2lkdGg9IjE0LjY1OTk5OTg0NzQxMjExIiBoZWlnaHQ9IjIwIiB2aWV3Qm94PSIwIDAgMTQuNjU5OTk5ODQ3NDEyMTEgMjAiPiYjeGE7CTxzdHlsZSB0eXBlPSJ0ZXh0L2NzcyI+JiN4YTsJLnN0MHtmaWxsOiM0Mjg1ZjQ7fSYjeGE7CS5zdDF7ZmlsbDojNjY5ZGY2O30mI3hhOwkuc3Qye2ZpbGw6I2FlY2JmYTt9JiN4YTsJPC9zdHlsZT4mI3hhOwk8c3R5bGU+JiN4YTsJCS5Ee2ZpbGwtcnVsZTpldmVub2RkfSYjeGE7CTwvc3R5bGU+JiN4YTsJPHBhdGggZD0iTTcuMzMgMTUuMzV2LTMuMDFMMCA4LjQ0djMuMDF6bTAgNC42NXYtMy4wMUwwIDEzLjA5djMuMDF6IiBjbGFzcz0ic3QyIEQiLz4mI3hhOwk8cGF0aCBkPSJNMTQuNjYgOC40NGwtNy4zMyAzLjl2My4wMWw3LjMzLTMuOXptMCA0LjY1bC03LjMzIDMuOVYyMGw3LjMzLTMuOXoiIGNsYXNzPSJzdDEgRCIvPiYjeGE7CTxwYXRoIGQ9Ik03LjMzIDB2My4wMWw3LjMzIDMuOVYzLjl6IiBjbGFzcz0ic3QwIEQiLz4mI3hhOwk8cGF0aCBkPSJNMCA2LjkxbDcuMzMtMy45VjBMMCAzLjl6IiBjbGFzcz0iRCBzdDEiLz4mI3hhOwk8cGF0aCBkPSJNNy4zMyAxMC43OVY3Ljc3TDAgMy44N3YzLjAyeiIgY2xhc3M9IkQgc3QyIi8+JiN4YTsJPHBhdGggZD0iTTE0LjY2IDMuODdsLTcuMzMgMy45djMuMDJsNy4zMy0zLjl6IiBjbGFzcz0iRCBzdDEiLz4mI3hhOzwvc3ZnPg==;" parent="1" vertex="1">
          <mxGeometry x="110" y="70" width="22.5" height="30.01" as="geometry" />
        </mxCell>
        <mxCell id="G1ptl9BatN_mfTDOLDaQ-58" value="Project" style="shape=process;whiteSpace=wrap;html=1;backgroundOutline=1;" parent="1" vertex="1">
          <mxGeometry x="350" y="230" width="120" height="30" as="geometry" />
        </mxCell>
        <mxCell id="CgpQCLeY4fuIe9qO7Qcv-10" value="" style="shape=image;verticalLabelPosition=bottom;labelBackgroundColor=default;verticalAlign=top;aspect=fixed;imageAspect=0;image=data:image/svg+xml,PHN2ZyB4bWxucz0iaHR0cDovL3d3dy53My5vcmcvMjAwMC9zdmciIHdpZHRoPSIyNTUuODIyMjM1MTA3NDIxODgiIHZpZXdCb3g9IjAuMTYzNzk2Mjc1ODU0MTEwNzIgMC40MjA2NjA0OTU3NTgwNTY2NCAyNTUuODIyMjM1MTA3NDIxODggMjM1LjY1NDE0NDI4NzEwOTM4IiBwcmVzZXJ2ZUFzcGVjdFJhdGlvPSJ4TWlkWU1pZCIgaGVpZ2h0PSIyMzUuNjU0MTQ0Mjg3MTA5MzgiPjxwYXRoIGZpbGw9IiNlMjQzMjkiIGQ9Im0xMjguMDc0ODUgMjM2LjA3NDY2NyA0Ny4xMDQtMTQ0Ljk3MDM2MjJoLTk0LjIwODAwMDV6Ii8+PHBhdGggZmlsbD0iI2ZjNmQyNiIgZD0ibTEyOC4wNzQ4NSAyMzYuMDc0NDIzLTQ3LjEwNDAwMDUtMTQ0Ljk3MDM2MmgtNjYuMDE1MDg1N3oiLz48cGF0aCBmaWxsPSIjZmNhMzI2IiBkPSJtMTQuOTU1ODg1NyA5MS4xMDQ0MjY3LTE0LjMxNDA1NzEzIDQ0LjA1NTE2MjNjLTEuMzA1NiA0LjAxNzk4MS4xMjQzNDI4NiA4LjQxOTk2MSAzLjU0MjU1MjM4IDEwLjkwMzE2MWwxMjMuODkwNTkwMDUgOTAuMDEyMDM5eiIvPjxwYXRoIGZpbGw9IiNlMjQzMjkiIGQ9Im0xNC45NTU4ODU3IDkxLjEwNDU0ODZoNjYuMDE1MDg1N2wtMjguMzcwODk1Mi04Ny4zMTQyODU3NGMtMS40NTkyLTQuNDkzNDA5NTMtNy44MTUzMTQzLTQuNDkyMTkwNDgtOS4yNzQ1MTQzIDB6Ii8+PHBhdGggZmlsbD0iI2ZjNmQyNiIgZD0ibTEyOC4wNzQ4NSAyMzYuMDc0NDIzIDQ3LjEwNC0xNDQuOTcwMzYyaDY2LjAxNTA4NXoiLz48cGF0aCBmaWxsPSIjZmNhMzI2IiBkPSJtMjQxLjE5MzkzNSA5MS4xMDQ0MjY3IDE0LjMxNDA1NyA0NC4wNTUxNjIzYzEuMzA1NiA0LjAxNzk4MS0uMTI0MzQyIDguNDE5OTYxLTMuNTQyNTUyIDEwLjkwMzE2MWwtMTIzLjg5MDU5IDkwLjAxMjAzOXoiLz48cGF0aCBmaWxsPSIjZTI0MzI5IiBkPSJtMjQxLjE5MzkzNSA5MS4xMDQ1NDg2aC02Ni4wMTUwODVsMjguMzcwODk1LTg3LjMxNDI4NTc0YzEuNDU5Mi00LjQ5MzQwOTUzIDcuODE1MzE0LTQuNDkyMTkwNDggOS4yNzQ1MTQgMHoiLz48L3N2Zz4=;" parent="1" vertex="1">
          <mxGeometry x="335.46000000000004" y="215" width="32.54" height="30" as="geometry" />
        </mxCell>
        <mxCell id="CgpQCLeY4fuIe9qO7Qcv-12" value="" style="editableCssRules=.*;html=1;shape=image;verticalLabelPosition=bottom;labelBackgroundColor=#ffffff;verticalAlign=top;aspect=fixed;imageAspect=0;image=data:image/svg+xml,PHN2ZyB4bWxucz0iaHR0cDovL3d3dy53My5vcmcvMjAwMC9zdmciIHhtbG5zOnY9Imh0dHBzOi8vdmVjdGEuaW8vbmFubyIgd2lkdGg9IjE0LjY1OTk5OTg0NzQxMjExIiBoZWlnaHQ9IjIwIiB2aWV3Qm94PSIwIDAgMTQuNjU5OTk5ODQ3NDEyMTEgMjAiPiYjeGE7CTxzdHlsZSB0eXBlPSJ0ZXh0L2NzcyI+JiN4YTsJLnN0MHtmaWxsOiM0Mjg1ZjQ7fSYjeGE7CS5zdDF7ZmlsbDojNjY5ZGY2O30mI3hhOwkuc3Qye2ZpbGw6I2FlY2JmYTt9JiN4YTsJPC9zdHlsZT4mI3hhOwk8c3R5bGU+JiN4YTsJCS5Ee2ZpbGwtcnVsZTpldmVub2RkfSYjeGE7CTwvc3R5bGU+JiN4YTsJPHBhdGggZD0iTTcuMzMgMTUuMzV2LTMuMDFMMCA4LjQ0djMuMDF6bTAgNC42NXYtMy4wMUwwIDEzLjA5djMuMDF6IiBjbGFzcz0ic3QyIEQiLz4mI3hhOwk8cGF0aCBkPSJNMTQuNjYgOC40NGwtNy4zMyAzLjl2My4wMWw3LjMzLTMuOXptMCA0LjY1bC03LjMzIDMuOVYyMGw3LjMzLTMuOXoiIGNsYXNzPSJzdDEgRCIvPiYjeGE7CTxwYXRoIGQ9Ik03LjMzIDB2My4wMWw3LjMzIDMuOVYzLjl6IiBjbGFzcz0ic3QwIEQiLz4mI3hhOwk8cGF0aCBkPSJNMCA2LjkxbDcuMzMtMy45VjBMMCAzLjl6IiBjbGFzcz0iRCBzdDEiLz4mI3hhOwk8cGF0aCBkPSJNNy4zMyAxMC43OVY3Ljc3TDAgMy44N3YzLjAyeiIgY2xhc3M9IkQgc3QyIi8+JiN4YTsJPHBhdGggZD0iTTE0LjY2IDMuODdsLTcuMzMgMy45djMuMDJsNy4zMy0zLjl6IiBjbGFzcz0iRCBzdDEiLz4mI3hhOzwvc3ZnPg==;" parent="1" vertex="1">
          <mxGeometry x="632" y="399" width="17" height="22.66" as="geometry" />
        </mxCell>
        <mxCell id="4lZZC2VNyamvR-eoDB4d-1" value="VPN" style="rounded=0;whiteSpace=wrap;html=1;align=left;verticalAlign=top;fillColor=#fff2cc;strokeColor=#d6b656;" vertex="1" parent="1">
          <mxGeometry x="1278" y="760" width="150" height="180" as="geometry" />
        </mxCell>
        <mxCell id="4lZZC2VNyamvR-eoDB4d-2" value="Cloud" style="rounded=0;whiteSpace=wrap;html=1;align=left;verticalAlign=top;fillColor=#dae8fc;strokeColor=#6c8ebf;" vertex="1" parent="1">
          <mxGeometry x="100" y="760" width="1178" height="180" as="geometry" />
        </mxCell>
        <mxCell id="4lZZC2VNyamvR-eoDB4d-3" style="edgeStyle=orthogonalEdgeStyle;rounded=0;orthogonalLoop=1;jettySize=auto;html=1;entryX=1;entryY=0.5;entryDx=0;entryDy=0;" edge="1" parent="1" source="4lZZC2VNyamvR-eoDB4d-4" target="4lZZC2VNyamvR-eoDB4d-9">
          <mxGeometry relative="1" as="geometry" />
        </mxCell>
        <mxCell id="4lZZC2VNyamvR-eoDB4d-4" value="API Gateway" style="rounded=1;whiteSpace=wrap;html=1;verticalAlign=middle;" vertex="1" parent="1">
          <mxGeometry x="1078" y="830" width="147" height="40" as="geometry" />
        </mxCell>
        <mxCell id="4lZZC2VNyamvR-eoDB4d-5" value="Cloud SQL for MySQL" style="rounded=1;whiteSpace=wrap;html=1;verticalAlign=top;dashed=1;" vertex="1" parent="1">
          <mxGeometry x="484" y="805.4899999999998" width="210" height="90" as="geometry" />
        </mxCell>
        <mxCell id="4lZZC2VNyamvR-eoDB4d-6" value="database/data" style="rounded=1;whiteSpace=wrap;html=1;absoluteArcSize=1;arcSize=14;strokeWidth=2;" vertex="1" parent="1">
          <mxGeometry x="536" y="841.9999999999998" width="106" height="28" as="geometry" />
        </mxCell>
        <mxCell id="4lZZC2VNyamvR-eoDB4d-7" value="" style="editableCssRules=.*;html=1;shape=image;verticalLabelPosition=bottom;labelBackgroundColor=#ffffff;verticalAlign=top;aspect=fixed;imageAspect=0;image=data:image/svg+xml,PHN2ZyB4bWxucz0iaHR0cDovL3d3dy53My5vcmcvMjAwMC9zdmciIHhtbG5zOnY9Imh0dHBzOi8vdmVjdGEuaW8vbmFubyIgd2lkdGg9IjE0LjY1OTk5OTg0NzQxMjExIiBoZWlnaHQ9IjIwIiB2aWV3Qm94PSIwIDAgMTQuNjU5OTk5ODQ3NDEyMTEgMjAiPiYjeGE7CTxzdHlsZSB0eXBlPSJ0ZXh0L2NzcyI+JiN4YTsJLnN0MHtmaWxsOiM0Mjg1ZjQ7fSYjeGE7CS5zdDF7ZmlsbDojNjY5ZGY2O30mI3hhOwkuc3Qye2ZpbGw6I2FlY2JmYTt9JiN4YTsJPC9zdHlsZT4mI3hhOwk8c3R5bGU+JiN4YTsJCS5Ee2ZpbGwtcnVsZTpldmVub2RkfSYjeGE7CTwvc3R5bGU+JiN4YTsJPHBhdGggZD0iTTcuMzMgMTUuMzV2LTMuMDFMMCA4LjQ0djMuMDF6bTAgNC42NXYtMy4wMUwwIDEzLjA5djMuMDF6IiBjbGFzcz0ic3QyIEQiLz4mI3hhOwk8cGF0aCBkPSJNMTQuNjYgOC40NGwtNy4zMyAzLjl2My4wMWw3LjMzLTMuOXptMCA0LjY1bC03LjMzIDMuOVYyMGw3LjMzLTMuOXoiIGNsYXNzPSJzdDEgRCIvPiYjeGE7CTxwYXRoIGQ9Ik03LjMzIDB2My4wMWw3LjMzIDMuOVYzLjl6IiBjbGFzcz0ic3QwIEQiLz4mI3hhOwk8cGF0aCBkPSJNMCA2LjkxbDcuMzMtMy45VjBMMCAzLjl6IiBjbGFzcz0iRCBzdDEiLz4mI3hhOwk8cGF0aCBkPSJNNy4zMyAxMC43OVY3Ljc3TDAgMy44N3YzLjAyeiIgY2xhc3M9IkQgc3QyIi8+JiN4YTsJPHBhdGggZD0iTTE0LjY2IDMuODdsLTcuMzMgMy45djMuMDJsNy4zMy0zLjl6IiBjbGFzcz0iRCBzdDEiLz4mI3hhOzwvc3ZnPg==;" vertex="1" parent="1">
          <mxGeometry x="473" y="784.4899999999998" width="30" height="40" as="geometry" />
        </mxCell>
        <mxCell id="4lZZC2VNyamvR-eoDB4d-8" style="edgeStyle=orthogonalEdgeStyle;rounded=0;orthogonalLoop=1;jettySize=auto;html=1;entryX=1;entryY=0.5;entryDx=0;entryDy=0;" edge="1" parent="1" source="4lZZC2VNyamvR-eoDB4d-9" target="4lZZC2VNyamvR-eoDB4d-5">
          <mxGeometry relative="1" as="geometry" />
        </mxCell>
        <mxCell id="4lZZC2VNyamvR-eoDB4d-9" value="Cloud Function/Cloud Run&amp;nbsp;" style="rounded=1;whiteSpace=wrap;html=1;verticalAlign=top;dashed=1;" vertex="1" parent="1">
          <mxGeometry x="765" y="805.4899999999998" width="210" height="90" as="geometry" />
        </mxCell>
        <mxCell id="4lZZC2VNyamvR-eoDB4d-10" value="Endpoints" style="rounded=1;whiteSpace=wrap;html=1;absoluteArcSize=1;arcSize=14;strokeWidth=2;" vertex="1" parent="1">
          <mxGeometry x="805.9900000000002" y="841.9999999999998" width="128.01" height="28" as="geometry" />
        </mxCell>
        <mxCell id="4lZZC2VNyamvR-eoDB4d-11" value="" style="shape=image;verticalLabelPosition=bottom;labelBackgroundColor=default;verticalAlign=top;aspect=fixed;imageAspect=0;image=data:image/svg+xml,PHN2ZyB4bWxuczp4bGluaz0iaHR0cDovL3d3dy53My5vcmcvMTk5OS94bGluayIgeG1sbnM9Imh0dHA6Ly93d3cudzMub3JnLzIwMDAvc3ZnIiBwcmVzZXJ2ZUFzcGVjdFJhdGlvPSJ4TWlkWU1pZCIgdmVyc2lvbj0iMS4xIiB2aWV3Qm94PSIwIDAgMjU2IDIzMS4yMzY4MTY0MDYyNSIgaGVpZ2h0PSIyMzEuMjM2ODE2NDA2MjUiIHdpZHRoPSIyNTYiPiYjeGE7ICAgIDxkZWZzPiYjeGE7ICAgICAgICA8cGF0aCBpZD0icGF0aC0xIiBkPSJNMjUyLjkyNTg1NCwxMDMuMjM3MDc3IEwyMDAuMzI3MzQ0LDExLjc1OTY2NyBDMTk2LjMwMjU3OSw0LjYyMjI1NzAzIDE4OC44MDA1NCwwLjE0ODQyNDcyNiAxODAuNjA3OTAyLDAgTDc1LjM5MDg4MTQsMCBDNjcuMTk3MDkxMiwwLjE0NDM4NTQ4IDU5LjY5MzE5ODQsNC42MTkzMjM2MyA1NS42NzE0Mzk4LDExLjc1OTY2NyBMMy4wNTI5Mjk4NSwxMDIuOTk3MDgzIEMtMS4wMTc2NDMyOCwxMTAuMDgwMzczIC0xLjAxNzY0MzI4LDExOC43OTMxNDYgMy4wNTI5Mjk4NSwxMjUuODc2NDM2IEw1NS42NTE0NDA0LDIxNy44NzM4MyBDNTkuNjMxOTc1NSwyMjUuMTEyNzA3IDY3LjExNTkwNTIsMjI5LjczNTEzNCA3NS4zNzA4ODIsMjMwLjA1MzQ4NiBMMTgwLjU4NzkwMywyMzAuMDUzNDg2IEMxODguODQyNDQyLDIyOS43NzAxNDQgMTk2LjMzOTgwOSwyMjUuMTY2ODk2IDIwMC4zMjczNDQsMjE3LjkzMzgyOSBMMjUyLjkyNTg1NCwxMjYuNDU2NDE5IEMyNTcuMDI0NzE1LDExOS4yNTkzMTEgMjU3LjAyNDcxNSwxMTAuNDM0MTg1IDI1Mi45MjU4NTQsMTAzLjIzNzA3NyBaIi8+JiN4YTsgICAgPC9kZWZzPiYjeGE7CQk8Zz4mI3hhOwkJCQk8bWFzayBmaWxsPSJ3aGl0ZSIgaWQ9Im1hc2stMiI+JiN4YTsJCQkJCQk8dXNlIHhsaW5rOmhyZWY9IiNwYXRoLTEiLz4mI3hhOwkJCQk8L21hc2s+JiN4YTsJCQkJPGcgZmlsbC1ydWxlPSJub256ZXJvIi8+JiN4YTsJCQkJPHBhdGggbWFzaz0idXJsKCNtYXNrLTIpIiBmaWxsLXJ1bGU9Im5vbnplcm8iIGZpbGw9IiM0Mjg1RjQiIGQ9Ik0yNTIuOTI1ODU0LDEwMy4yMzcwNzcgTDIwMC4zMjczNDQsMTEuNzU5NjY3IEMxOTYuMzAyNTc5LDQuNjIyMjU3MDMgMTg4LjgwMDU0LDAuMTQ4NDI0NzI2IDE4MC42MDc5MDIsMCBMNzUuMzkwODgxNCwwIEM2Ny4xOTcwOTEyLDAuMTQ0Mzg1NDggNTkuNjkzMTk4NCw0LjYxOTMyMzYzIDU1LjY3MTQzOTgsMTEuNzU5NjY3IEwzLjA1MjkyOTg1LDEwMi45OTcwODMgQy0xLjAxNzY0MzI4LDExMC4wODAzNzMgLTEuMDE3NjQzMjgsMTE4Ljc5MzE0NiAzLjA1MjkyOTg1LDEyNS44NzY0MzYgTDU1LjY1MTQ0MDQsMjE3Ljg3MzgzIEM1OS42MzE5NzU1LDIyNS4xMTI3MDcgNjcuMTE1OTA1MiwyMjkuNzM1MTM0IDc1LjM3MDg4MiwyMzAuMDUzNDg2IEwxODAuNTg3OTAzLDIzMC4wNTM0ODYgQzE4OC44NDI0NDIsMjI5Ljc3MDE0NCAxOTYuMzM5ODA5LDIyNS4xNjY4OTYgMjAwLjMyNzM0NCwyMTcuOTMzODI5IEwyNTIuOTI1ODU0LDEyNi40NTY0MTkgQzI1Ny4wMjQ3MTUsMTE5LjI1OTMxMSAyNTcuMDI0NzE1LDExMC40MzQxODUgMjUyLjkyNTg1NCwxMDMuMjM3MDc3IFoiLz4mI3hhOwkJCQk8cGF0aCBtYXNrPSJ1cmwoI21hc2stMikiIG9wYWNpdHk9IjAuMDcwMDAwMDAwMyIgZmlsbC1ydWxlPSJub256ZXJvIiBmaWxsPSIjMDAwMDAwIiBkPSJNMTg3LjE2NzYwNSw4NC43MzE2MDMgTDE3OS45MTU3MTEsOTIuNjQwOTQ4NSBMMTgxLjU0OTM3OSwxMzkuNjM4Nzk3IEwxNzQuNjc2MDE5LDE0OS42MDAxOSBMMTcwLjY5MTQ2MiwxNDUuNjE1NjMzIEwxNzQuMzU3MjU0LDE0NS42MTU2MzMgTDE3NC4zNTcyNTQsMTI5LjMxODc5NSBMMTU2Ljc2NTQzNSwxMTEuNzI2OTc2IEwxNDMuNDY4NzQ2LDExOC4zNzMwNDcgTDk5LjM2Nzg5MjksNzQuMTcyNTI3MSBMNzguMTMwMjA0NSw4NS41NDg0MzcxIEw3NS41MDAzOTcsMTA3LjU4MzAzNyBMODIuOTUxNTE4NCwxNDcuOTA2NzUzIEw5My43NDk2Njc3LDE1OC40ODU3NTIgTDg4LjgyODczOTksMTY1LjQ3ODY0OSBMMTUzLjA3NjA5OCwyMzEuMjM2ODE2IEwxNzkuOTE1NzExLDIzMS4yMzY4MTYgQzE4OC4xMzg2MTQsMjMwLjk1NDU2IDE5Ny4wNDQyNzYsMjI1LjU2NTY5OCAyMDEuMDE2NTI4LDIxOC4zNjAzNTIgTDI0NC43OTUzMzYsMTQyLjM1NjkzNCBMMTg3LjE2NzYwNSw4NC43MzE2MDMgWiIvPiYjeGE7CQkJCTxwb2x5Z29uIHBvaW50cz0iODguODI4NzM5OSAxNjUuNDc4NjQ5IDk5LjM2Nzg5MjkgMTU0LjkzOTQ5NiA4My41NjkxMjQ3IDEzOS4xNDA3MjggODMuNTY5MTI0NyA4OS45NzEyOTUzIDk5LjM2Nzg5MjkgNzQuMTcyNTI3MSA4OC44Mjg3Mzk5IDYzLjYzMzM3NDEgNjcuNzMwNTExIDg0LjczMTYwMyA2Ny43MzA1MTEgMTQ0LjM4MDQyIiBtYXNrPSJ1cmwoI21hc2stMikiIGZpbGwtcnVsZT0ibm9uemVybyIgZmlsbD0iI0ZGRkZGRiIvPiYjeGE7CQkJCTxjaXJjbGUgcj0iNy40NzEwNDQyMyIgY3k9IjExNC41NTYwMTIiIGN4PSIxMDUuMTQ1NSIgbWFzaz0idXJsKCNtYXNrLTIpIiBmaWxsLXJ1bGU9Im5vbnplcm8iIGZpbGw9IiNGRkZGRkYiLz4mI3hhOwkJCQk8Y2lyY2xlIHI9IjcuNDcxMDQ0MjMiIGN5PSIxMTQuNTU2MDEyIiBjeD0iMTI3LjQ5ODg2NSIgbWFzaz0idXJsKCNtYXNrLTIpIiBmaWxsLXJ1bGU9Im5vbnplcm8iIGZpbGw9IiNGRkZGRkYiLz4mI3hhOwkJCQk8Y2lyY2xlIHI9IjcuNDcxMDQ0MjMiIGN5PSIxMTQuNTU2MDEyIiBjeD0iMTQ5Ljg1MjIyOSIgbWFzaz0idXJsKCNtYXNrLTIpIiBmaWxsLXJ1bGU9Im5vbnplcm8iIGZpbGw9IiNGRkZGRkYiLz4mI3hhOwkJCQk8cG9seWdvbiBwb2ludHM9IjE2Ni4wNjkzNzYgNjMuNjMzMzc0MSAxNTUuNTMwMjIzIDc0LjE3MjUyNzEgMTcxLjMyODk5MSA4OS45NzEyOTUzIDE3MS4zMjg5OTEgMTM5LjE0MDcyOCAxNTUuNTMwMjIzIDE1NC45Mzk0OTYgMTY2LjA2OTM3NiAxNjUuNDc4NjQ5IDE4Ny4xNjc2MDUgMTQ0LjM4MDQyIDE4Ny4xNjc2MDUgODQuNzMxNjAzIiBtYXNrPSJ1cmwoI21hc2stMikiIGZpbGwtcnVsZT0ibm9uemVybyIgZmlsbD0iI0ZGRkZGRiIvPiYjeGE7CQk8L2c+JiN4YTs8L3N2Zz4=;" vertex="1" parent="1">
          <mxGeometry x="748" y="788.7499999999998" width="34.89" height="31.49" as="geometry" />
        </mxCell>
        <mxCell id="4lZZC2VNyamvR-eoDB4d-12" value="query data" style="text;html=1;strokeColor=none;fillColor=none;align=center;verticalAlign=middle;whiteSpace=wrap;rounded=0;" vertex="1" parent="1">
          <mxGeometry x="683.1199999999999" y="821.2399999999998" width="94.77" height="30" as="geometry" />
        </mxCell>
        <mxCell id="4lZZC2VNyamvR-eoDB4d-13" value="&lt;font style=&quot;font-size: 24px;&quot;&gt;&lt;b&gt;Kafka&lt;/b&gt;&lt;/font&gt;" style="rounded=1;whiteSpace=wrap;html=1;absoluteArcSize=1;arcSize=14;strokeWidth=2;" vertex="1" parent="1">
          <mxGeometry x="143" y="810.4900000000002" width="180" height="80.08" as="geometry" />
        </mxCell>
        <mxCell id="4lZZC2VNyamvR-eoDB4d-14" style="edgeStyle=orthogonalEdgeStyle;rounded=0;orthogonalLoop=1;jettySize=auto;html=1;entryX=0;entryY=0.5;entryDx=0;entryDy=0;exitX=1;exitY=0.5;exitDx=0;exitDy=0;" edge="1" parent="1" source="4lZZC2VNyamvR-eoDB4d-13" target="4lZZC2VNyamvR-eoDB4d-5">
          <mxGeometry relative="1" as="geometry">
            <mxPoint x="-6.000000000000455" y="785.1149999999998" as="sourcePoint" />
            <mxPoint x="176.99999999999955" y="845.9749999999995" as="targetPoint" />
          </mxGeometry>
        </mxCell>
        <mxCell id="4lZZC2VNyamvR-eoDB4d-15" value="export currency rate data" style="text;html=1;align=center;verticalAlign=middle;resizable=0;points=[];autosize=1;strokeColor=none;fillColor=none;" vertex="1" parent="1">
          <mxGeometry x="322" y="825.2399999999998" width="151" height="26" as="geometry" />
        </mxCell>
        <mxCell id="4lZZC2VNyamvR-eoDB4d-16" style="edgeStyle=orthogonalEdgeStyle;rounded=0;orthogonalLoop=1;jettySize=auto;html=1;entryX=1;entryY=0.5;entryDx=0;entryDy=0;" edge="1" parent="1" source="4lZZC2VNyamvR-eoDB4d-17" target="4lZZC2VNyamvR-eoDB4d-4">
          <mxGeometry relative="1" as="geometry" />
        </mxCell>
        <mxCell id="4lZZC2VNyamvR-eoDB4d-17" value="Users" style="sketch=0;outlineConnect=0;fontColor=#232F3E;gradientColor=none;fillColor=#232F3D;strokeColor=none;dashed=0;verticalLabelPosition=bottom;verticalAlign=top;align=center;html=1;fontSize=12;fontStyle=0;aspect=fixed;pointerEvents=1;shape=mxgraph.aws4.users;" vertex="1" parent="1">
          <mxGeometry x="1321" y="811.4899999999998" width="78" height="78" as="geometry" />
        </mxCell>
        <mxCell id="4lZZC2VNyamvR-eoDB4d-18" value="" style="shape=image;verticalLabelPosition=bottom;labelBackgroundColor=default;verticalAlign=top;aspect=fixed;imageAspect=0;image=https://www.svgrepo.com/download/375342/cloud-api-gateway.svg;" vertex="1" parent="1">
          <mxGeometry x="1064" y="815.48" width="30" height="30" as="geometry" />
        </mxCell>
        <mxCell id="4lZZC2VNyamvR-eoDB4d-19" value="routing" style="text;html=1;align=center;verticalAlign=middle;resizable=0;points=[];autosize=1;strokeColor=none;fillColor=none;" vertex="1" parent="1">
          <mxGeometry x="1000" y="820.24" width="60" height="30" as="geometry" />
        </mxCell>
        <mxCell id="4lZZC2VNyamvR-eoDB4d-20" value="call" style="text;html=1;align=center;verticalAlign=middle;resizable=0;points=[];autosize=1;strokeColor=none;fillColor=none;" vertex="1" parent="1">
          <mxGeometry x="1278" y="820.24" width="40" height="30" as="geometry" />
        </mxCell>
        <mxCell id="4lZZC2VNyamvR-eoDB4d-21" value="(1)" style="text;html=1;align=center;verticalAlign=middle;resizable=0;points=[];autosize=1;strokeColor=none;fillColor=none;" vertex="1" parent="1">
          <mxGeometry x="385" y="851" width="33" height="26" as="geometry" />
        </mxCell>
        <mxCell id="4lZZC2VNyamvR-eoDB4d-22" value="" style="shape=image;verticalLabelPosition=bottom;labelBackgroundColor=default;verticalAlign=top;aspect=fixed;imageAspect=0;image=https://static-00.iconduck.com/assets.00/google-cloud-run-icon-512x460-knkc4eyx.png;" vertex="1" parent="1">
          <mxGeometry x="951" y="788.24" width="35.62" height="32" as="geometry" />
        </mxCell>
        <mxCell id="4lZZC2VNyamvR-eoDB4d-23" value="(2)" style="text;html=1;align=center;verticalAlign=middle;resizable=0;points=[];autosize=1;strokeColor=none;fillColor=none;" vertex="1" parent="1">
          <mxGeometry x="767.99" y="803.49" width="40" height="30" as="geometry" />
        </mxCell>
      </root>
    </mxGraphModel>
  </diagram>
</mxfile>
